<?xml version="1.0" encoding="utf-8"?>
<!-- Generator: Adobe Illustrator 19.2.1, SVG Export Plug-In . SVG Version: 6.00 Build 0)  -->
<svg version="1.1" id="Layer_1" xmlns="http://www.w3.org/2000/svg" xmlns:xlink="http://www.w3.org/1999/xlink" x="0px" y="0px"
	 viewBox="0 0 134.4 128.5" style="enable-background:new 0 0 134.4 128.5;" xml:space="preserve">
<style type="text/css">
	.st0{fill:#FFFFFF;}
	.st1{fill:#07AA4C;}
</style>
<g>
	<g>
		<g>
			<path class="st0" d="M23.9,0C10.7,0,0,10.7,0,23.9v80.7c0,13.2,10.7,23.9,23.9,23.9h86.6c13.2,0,23.9-10.7,23.9-23.9V23.9
				c0-13.2-10.7-23.9-23.9-23.9H23.9z"/>
			<g>
				<path class="st1" d="M6.3,104.6V23.9c0-9.5,7.8-17.3,17.4-17.3h87c9.6,0,17.3,7.7,17.3,17.3v80.7c0,9.5-7.8,17.3-17.3,17.3h-87
					C14.1,121.8,6.3,114.1,6.3,104.6z"/>
			</g>
		</g>
	</g>
	<g>
		<g>
			<path class="st0" d="M78.1,87.8c-3.2,3.3-6.9,4.5-11.1,4.5c-4.3,0-7.9-1.5-10.6-4.3c-4-4-3.9-8.9-3.9-15.7
				c0-6.8-0.1-11.8,3.9-15.7c2.8-2.8,6.2-4.3,10.6-4.3c9.1,0,13.8,6,14.9,12.6h-7.8c-0.9-3.7-3.2-5.8-7.1-5.8
				c-2.1,0-3.8,0.8-4.9,2.1c-1.5,1.7-1.9,3.5-1.9,11.1s0.4,9.5,1.9,11.1c1.1,1.3,2.8,2.1,4.9,2.1c2.3,0,4.2-0.8,5.5-2.2
				c1.3-1.4,1.8-3.2,1.8-5.3v-1.5H67v-6.4h14.9v5.8C81.9,81.5,80.9,85,78.1,87.8z"/>
			<g>
				<path class="st0" d="M24.3,98.4H110L67.1,25.9L24.3,98.4z M67.1,30.9l38.4,64.9H28.8L67.1,30.9z"/>
			</g>
		</g>
	</g>
</g>
</svg>
