<?xml version="1.0" encoding="utf-8"?>
<!-- Generator: Adobe Illustrator 19.2.1, SVG Export Plug-In . SVG Version: 6.00 Build 0)  -->
<svg version="1.1" id="Layer_1" xmlns="http://www.w3.org/2000/svg" xmlns:xlink="http://www.w3.org/1999/xlink" x="0px" y="0px"
	 viewBox="0 0 595.3 841.9" style="enable-background:new 0 0 595.3 841.9;" xml:space="preserve">
<style type="text/css">
	.st0{fill:#FFFFFF;}
	.st1{fill:#07AA4C;}
</style>
<g>
	<g>
		<g>
			<path class="st0" d="M245.1,291.4c-13.2,0-23.9,10.7-23.9,23.9V396c0,13.2,10.7,23.9,23.9,23.9h86.6c13.2,0,23.9-10.7,23.9-23.9
				v-80.7c0-13.2-10.7-23.9-23.9-23.9H245.1z"/>
			<g>
				<path class="st1" d="M227.5,396v-80.7c0-9.5,7.8-17.3,17.4-17.3c0,0,87,0,87,0c9.6,0,17.3,7.7,17.3,17.3V396
					c0,9.5-7.8,17.3-17.3,17.3l-87,0C235.3,413.2,227.5,405.5,227.5,396z"/>
			</g>
		</g>
	</g>
	<g>
		<g>
			<path class="st0" d="M299.3,379.2c-3.2,3.3-6.9,4.5-11.1,4.5c-4.3,0-7.9-1.5-10.6-4.3c-4-4-3.9-8.9-3.9-15.7
				c0-6.8-0.1-11.8,3.9-15.7c2.8-2.8,6.2-4.3,10.6-4.3c9.1,0,13.8,6,14.9,12.6h-7.8c-0.9-3.7-3.2-5.8-7.1-5.8
				c-2.1,0-3.8,0.8-4.9,2.1c-1.5,1.7-1.9,3.5-1.9,11.1s0.4,9.5,1.9,11.1c1.1,1.3,2.8,2.1,4.9,2.1c2.3,0,4.2-0.8,5.5-2.2
				c1.3-1.4,1.8-3.2,1.8-5.3v-1.5h-7.3v-6.4h14.9v5.8C303.1,372.9,302.1,376.4,299.3,379.2z"/>
			<g>
				<path class="st0" d="M245.5,389.8h85.7l-42.9-72.5L245.5,389.8z M288.3,322.3l38.4,64.9H250L288.3,322.3z"/>
			</g>
		</g>
	</g>
</g>
</svg>
