<?xml version="1.0" encoding="utf-8"?>
<!-- Generator: Adobe Illustrator 19.2.1, SVG Export Plug-In . SVG Version: 6.00 Build 0)  -->
<svg version="1.1" id="Layer_1" xmlns="http://www.w3.org/2000/svg" xmlns:xlink="http://www.w3.org/1999/xlink" x="0px" y="0px"
	 viewBox="0 0 134.4 128.5" style="enable-background:new 0 0 134.4 128.5;" xml:space="preserve">
<style type="text/css">
	.st0{fill:#FFFFFF;}
	.st1{fill:#08A8DD;}
</style>
<g>
	<g>
		<path class="st0" d="M23.9,0C10.7,0,0,10.7,0,23.9v80.7c0,13.2,10.7,23.9,23.9,23.9h86.6c13.2,0,23.9-10.7,23.9-23.9V23.9
			c0-13.2-10.7-23.9-23.9-23.9H23.9z"/>
		<g>
			<path class="st1" d="M6.4,104.6V23.9c0-9.5,7.8-17.3,17.4-17.3h87c9.6,0,17.3,7.7,17.3,17.3v80.7c0,9.5-7.8,17.3-17.3,17.3h-87
				C14.2,121.8,6.4,114.1,6.4,104.6z"/>
		</g>
	</g>
	<g>
		<path class="st0" d="M80.6,90.7V60.3L70.7,80h-6.9l-10-19.7v30.4H43.6V38.6h10l13.6,28.2l13.5-28.2h10v52.1H80.6z"/>
		<g>
			<path class="st0" d="M24.2,64.2c0,23.7,19.3,43,43,43s43-19.3,43-43s-19.3-43-43-43S24.2,40.5,24.2,64.2z M27.6,64.2
				c0-21.9,17.8-39.6,39.7-39.6c21.9,0,39.7,17.8,39.7,39.6c0,21.9-17.8,39.7-39.7,39.7C45.3,103.9,27.6,86.1,27.6,64.2z"/>
		</g>
	</g>
</g>
</svg>
