<?xml version="1.0" encoding="utf-8"?>
<!-- Generator: Adobe Illustrator 19.2.1, SVG Export Plug-In . SVG Version: 6.00 Build 0)  -->
<svg version="1.1" id="Layer_1" xmlns="http://www.w3.org/2000/svg" xmlns:xlink="http://www.w3.org/1999/xlink" x="0px" y="0px"
	 viewBox="0 0 595.3 841.9" style="enable-background:new 0 0 595.3 841.9;" xml:space="preserve">
<style type="text/css">
	.st0{fill:#FFFFFF;}
	.st1{fill:#08A8DD;}
</style>
<g>
	<g>
		<path class="st0" d="M261.9,339.4c-13.2,0-23.9,10.7-23.9,23.9V444c0,13.2,10.7,23.9,23.9,23.9h86.6c13.2,0,23.9-10.7,23.9-23.9
			v-80.7c0-13.2-10.7-23.9-23.9-23.9H261.9z"/>
		<g>
			<path class="st1" d="M244.4,444v-80.7c0-9.5,7.8-17.3,17.4-17.3c0,0,87,0,87,0c9.6,0,17.3,7.7,17.3,17.3V444
				c0,9.5-7.8,17.3-17.3,17.3l-87,0C252.2,461.2,244.4,453.5,244.4,444z"/>
		</g>
	</g>
	<g>
		<path class="st0" d="M318.6,430.1v-30.4l-9.9,19.7h-6.9l-10-19.7v30.4h-10.2V378h10l13.6,28.2l13.5-28.2h10v52.1H318.6z"/>
		<g>
			<path class="st0" d="M262.2,403.6c0,23.7,19.3,43,43,43c23.7,0,43-19.3,43-43c0-23.7-19.3-43-43-43
				C281.5,360.6,262.2,379.9,262.2,403.6z M265.6,403.6c0-21.9,17.8-39.6,39.7-39.6c21.9,0,39.7,17.8,39.7,39.6
				c0,21.9-17.8,39.7-39.7,39.7C283.3,443.3,265.6,425.5,265.6,403.6z"/>
		</g>
	</g>
</g>
</svg>
