<?xml version="1.0" encoding="utf-8"?>
<!-- Generator: Adobe Illustrator 19.2.1, SVG Export Plug-In . SVG Version: 6.00 Build 0)  -->
<svg version="1.1" id="Layer_1" xmlns="http://www.w3.org/2000/svg" xmlns:xlink="http://www.w3.org/1999/xlink" x="0px" y="0px"
	 viewBox="0 0 595.3 841.9" style="enable-background:new 0 0 595.3 841.9;" xml:space="preserve">
<style type="text/css">
	.st0{fill:#FFFFFF;}
	.st1{fill:#EC2227;}
</style>
<g>
	<g>
		<path class="st0" d="M248.4,329.4c-13.2,0-23.9,10.7-23.9,23.9V434c0,13.2,10.7,23.9,23.9,23.9H335c13.2,0,23.9-10.7,23.9-23.9
			v-80.7c0-13.2-10.7-23.9-23.9-23.9H248.4z"/>
		<g>
			<path class="st1" d="M230.9,434v-80.7c0-9.5,7.8-17.3,17.4-17.3c0,0,87,0,87,0c9.6,0,17.3,7.7,17.3,17.3V434
				c0,9.5-7.8,17.3-17.3,17.3l-87,0C238.7,451.2,230.9,443.5,230.9,434z"/>
		</g>
	</g>
	<g>
		<g>
			<g>
				<path class="st0" d="M316.8,403.2v-18.6l-3.9,3.4v-2.4l3.9-3.4h2.1v20.9H316.8z"/>
				<path class="st0" d="M332.4,401.9c-1,1-2.3,1.6-4.2,1.6c-1.8,0-3.3-0.6-4.2-1.5c-0.9-0.9-1.4-2.1-1.5-3.6h2.1
					c0.3,2.1,1.4,3.3,3.6,3.3c1,0,2-0.4,2.6-1c1.1-1.1,1.1-2.8,1.1-4.3c0-2.6-0.5-5.1-3.5-5.1c-1.8,0-3.1,0.8-3.5,2.1h-1.9v-11h10.6
					v1.9H325v6.6c0.8-0.9,2.1-1.4,3.8-1.4c1.6,0,2.8,0.5,3.6,1.3c1.5,1.5,1.7,3.6,1.7,5.6C334.1,398.4,333.9,400.4,332.4,401.9z"/>
				<path class="st0" d="M343.9,396.3v5.2h-2v-5.2h-5.2v-2h5.2v-5.1h2v5.1h5.1v2H343.9z"/>
			</g>
			<g>
				<path class="st0" d="M267.1,407.6v-16.1l-5.3,10.5h-3.6l-5.3-10.5v16.1h-5.4V380h5.3l7.2,14.9l7.2-14.9h5.3v27.6H267.1z"/>
				<path class="st0" d="M292.8,407.6l-1.6-4.9h-9.8l-1.7,4.9h-5.6l10-27.6h4.2l10.1,27.6H292.8z M286.4,388.2l-3.5,10h6.9
					L286.4,388.2z"/>
				<g>
					<path class="st0" d="M292,365.1h-39.8l-17.8,28.5l17.8,28.5h40.3l17.8-28.5l-17.8-28.5H292z M291.5,366.9
						c0.5,0.8,16.1,25.8,16.7,26.7c-0.6,0.9-16.2,25.9-16.7,26.7c-1,0-37.3,0-38.3,0c-0.5-0.8-16.1-25.8-16.7-26.7
						c0.6-0.9,16.2-25.9,16.7-26.7C254.1,366.9,290.5,366.9,291.5,366.9z"/>
				</g>
			</g>
		</g>
	</g>
</g>
</svg>
