<?xml version="1.0" encoding="utf-8"?>
<!-- Generator: Adobe Illustrator 19.2.1, SVG Export Plug-In . SVG Version: 6.00 Build 0)  -->
<svg version="1.1" id="Layer_1" xmlns="http://www.w3.org/2000/svg" xmlns:xlink="http://www.w3.org/1999/xlink" x="0px" y="0px"
	 viewBox="0 0 134.4 128.5" style="enable-background:new 0 0 134.4 128.5;" xml:space="preserve">
<style type="text/css">
	.st0{fill:#FFFFFF;}
	.st1{fill:#EC2227;}
</style>
<g>
	<g>
		<path class="st0" d="M23.9,0C10.7,0,0,10.7,0,23.9v80.7c0,13.2,10.7,23.9,23.9,23.9h86.6c13.2,0,23.9-10.7,23.9-23.9V23.9
			c0-13.2-10.7-23.9-23.9-23.9H23.9z"/>
		<g>
			<path class="st1" d="M6.4,104.6V23.9c0-9.5,7.8-17.3,17.4-17.3h87c9.6,0,17.3,7.7,17.3,17.3v80.7c0,9.5-7.8,17.3-17.3,17.3h-87
				C14.2,121.8,6.4,114.1,6.4,104.6z"/>
		</g>
	</g>
	<g>
		<g>
			<g>
				<path class="st0" d="M92.3,73.8V55.2l-3.9,3.4v-2.4l3.9-3.4h2.1v20.9h-2.1V73.8z"/>
				<path class="st0" d="M107.9,72.5c-1,1-2.3,1.6-4.2,1.6c-1.8,0-3.3-0.6-4.2-1.5c-0.9-0.9-1.4-2.1-1.5-3.6h2.1
					c0.3,2.1,1.4,3.3,3.6,3.3c1,0,2-0.4,2.6-1c1.1-1.1,1.1-2.8,1.1-4.3c0-2.6-0.5-5.1-3.5-5.1c-1.8,0-3.1,0.8-3.5,2.1h-1.9V53h10.6
					v1.9h-8.6v6.6c0.8-0.9,2.1-1.4,3.8-1.4c1.6,0,2.8,0.5,3.6,1.3c1.5,1.5,1.7,3.6,1.7,5.6S109.4,71,107.9,72.5z"/>
				<path class="st0" d="M119.4,66.9v5.2h-2v-5.2h-5.2v-2h5.2v-5.1h2v5.1h5.1v2H119.4z"/>
			</g>
			<g>
				<path class="st0" d="M42.6,78.2V62.1l-5.3,10.5h-3.6l-5.3-10.5v16.1H23V50.6h5.3l7.2,14.9l7.2-14.9H48v27.6H42.6z"/>
				<path class="st0" d="M68.3,78.2l-1.6-4.9h-9.8l-1.7,4.9h-5.6l10-27.6h4.2l10.1,27.6H68.3z M61.9,58.8l-3.5,10h6.9L61.9,58.8z"/>
				<g>
					<path class="st0" d="M67.5,35.7H27.7L9.9,64.2l17.8,28.5H68l17.8-28.5L68,35.7H67.5z M67,37.5c0.5,0.8,16.1,25.8,16.7,26.7
						C83.1,65.1,67.5,90.1,67,90.9c-1,0-37.3,0-38.3,0C28.2,90.1,12.6,65.1,12,64.2c0.6-0.9,16.2-25.9,16.7-26.7
						C29.6,37.5,66,37.5,67,37.5z"/>
				</g>
			</g>
		</g>
	</g>
</g>
</svg>
