<?xml version="1.0" encoding="utf-8"?>
<!-- Generator: Adobe Illustrator 19.2.1, SVG Export Plug-In . SVG Version: 6.00 Build 0)  -->
<svg version="1.1" id="Layer_1" xmlns="http://www.w3.org/2000/svg" xmlns:xlink="http://www.w3.org/1999/xlink" x="0px" y="0px"
	 viewBox="0 0 134.4 128.5" style="enable-background:new 0 0 134.4 128.5;" xml:space="preserve">
<style type="text/css">
	.st0{fill:#FFFFFF;}
	.st1{fill:#FCEE22;stroke:#000000;stroke-width:1.5;stroke-miterlimit:10;}
	.st2{fill:#231F20;}
</style>
<g>
	<g>
		<path class="st0" d="M23.9,0C10.7,0,0,10.7,0,23.9v80.7c0,13.2,10.7,23.9,23.9,23.9h86.6c13.2,0,23.9-10.7,23.9-23.9V23.9
			c0-13.2-10.7-23.9-23.9-23.9H23.9z"/>
		<g>
			<path class="st1" d="M6.4,104.6V23.9c0-9.5,7.8-17.3,17.4-17.3h87c9.6,0,17.3,7.7,17.3,17.3v80.7c0,9.5-7.8,17.3-17.3,17.3h-87
				C14.2,121.9,6.4,114.2,6.4,104.6z"/>
		</g>
	</g>
	<g>
		<path class="st2" d="M51.3,69.7h-8v15.7h-8.1V43.8h16.1c8.6,0,13.7,5.9,13.7,13C65.1,63.8,59.9,69.7,51.3,69.7z M50.9,51h-7.6
			v11.4h7.6c3.7,0,6-2.3,6-5.7C57,53.4,54.6,51,50.9,51z"/>
		<path class="st2" d="M95.2,81c-3.3,3.4-7.3,4.7-11.7,4.7c-4.6,0-8.3-1.6-11.2-4.6c-4.2-4.2-4.1-9.4-4.1-16.6s-0.1-12.4,4.1-16.6
			c2.9-2.9,6.5-4.6,11.2-4.6c9.6,0,14.6,6.3,15.7,13.3H91c-0.9-3.9-3.3-6.1-7.5-6.1c-2.2,0-4,0.9-5.2,2.2c-1.6,1.8-2,3.7-2,11.7
			s0.4,10,2,11.8c1.2,1.3,3,2.2,5.2,2.2c2.5,0,4.4-0.9,5.8-2.3c1.3-1.5,1.9-3.4,1.9-5.6v-1.6h-7.7v-6.8h15.7v6.1
			C99.2,74.4,98.2,78,95.2,81z"/>
		<g>
			<path class="st2" d="M108.6,32.8H24.4v62.8h85.5V32.8H108.6z M107.3,35.5c0,2.5,0,54.9,0,57.5c-2.6,0-77.6,0-80.2,0
				c0-2.5,0-54.9,0-57.5C29.7,35.5,104.7,35.5,107.3,35.5z"/>
		</g>
	</g>
</g>
</svg>
