<?xml version="1.0" encoding="utf-8"?>
<!-- Generator: Adobe Illustrator 19.2.1, SVG Export Plug-In . SVG Version: 6.00 Build 0)  -->
<svg version="1.1" id="Layer_1" xmlns="http://www.w3.org/2000/svg" xmlns:xlink="http://www.w3.org/1999/xlink" x="0px" y="0px"
	 viewBox="0 0 595.3 841.9" style="enable-background:new 0 0 595.3 841.9;" xml:space="preserve">
<style type="text/css">
	.st0{fill:#FFFFFF;}
	.st1{fill:#FCEE22;stroke:#000000;stroke-width:1.5;stroke-miterlimit:10;}
	.st2{fill:#231F20;}
</style>
<g>
	<g>
		<path class="st0" d="M259.6,368.1c-13.2,0-23.9,10.7-23.9,23.9v80.7c0,13.2,10.7,23.9,23.9,23.9h86.6c13.2,0,23.9-10.7,23.9-23.9
			V392c0-13.2-10.7-23.9-23.9-23.9H259.6z"/>
		<g>
			<path class="st1" d="M242.1,472.7V392c0-9.5,7.8-17.3,17.4-17.3c0,0,87,0,87,0c9.6,0,17.3,7.7,17.3,17.3v80.7
				c0,9.5-7.8,17.3-17.3,17.3l-87,0C249.9,490,242.1,482.3,242.1,472.7z"/>
		</g>
	</g>
	<g>
		<path class="st2" d="M287,437.8h-8v15.7h-8.1v-41.6H287c8.6,0,13.7,5.9,13.7,13C300.8,431.9,295.6,437.8,287,437.8z M286.6,419.1
			H279v11.4h7.6c3.7,0,6-2.3,6-5.7C292.7,421.5,290.3,419.1,286.6,419.1z"/>
		<path class="st2" d="M330.9,449.1c-3.3,3.4-7.3,4.7-11.7,4.7c-4.6,0-8.3-1.6-11.2-4.6c-4.2-4.2-4.1-9.4-4.1-16.6
			c0-7.2-0.1-12.4,4.1-16.6c2.9-2.9,6.5-4.6,11.2-4.6c9.6,0,14.6,6.3,15.7,13.3h-8.2c-0.9-3.9-3.3-6.1-7.5-6.1c-2.2,0-4,0.9-5.2,2.2
			c-1.6,1.8-2,3.7-2,11.7c0,8,0.4,10,2,11.8c1.2,1.3,3,2.2,5.2,2.2c2.5,0,4.4-0.9,5.8-2.3c1.3-1.5,1.9-3.4,1.9-5.6v-1.6h-7.7v-6.8
			h15.7v6.1C334.9,442.5,333.9,446.1,330.9,449.1z"/>
		<g>
			<path class="st2" d="M344.3,400.9h-84.2l0,62.8h85.5v-62.8H344.3z M343,403.6c0,2.5,0,54.9,0,57.5c-2.6,0-77.6,0-80.2,0
				c0-2.5,0-54.9,0-57.5C265.4,403.6,340.4,403.6,343,403.6z"/>
		</g>
	</g>
</g>
</svg>
