<?xml version="1.0" encoding="utf-8"?>
<!-- Generator: Adobe Illustrator 19.2.1, SVG Export Plug-In . SVG Version: 6.00 Build 0)  -->
<svg version="1.1" id="Layer_1" xmlns="http://www.w3.org/2000/svg" xmlns:xlink="http://www.w3.org/1999/xlink" x="0px" y="0px"
	 viewBox="0 0 595.3 841.9" style="enable-background:new 0 0 595.3 841.9;" xml:space="preserve">
<style type="text/css">
	.st0{fill:#FFFFFF;}
	.st1{fill:#231F20;stroke:#231F20;stroke-width:0.4;}
	.st2{fill:#EC2127;stroke:#231F20;stroke-width:0.4;}
	.st3{fill:#231F20;}
</style>
<g>
	<g>
		<g>
			<path class="st0" d="M217.8,361.6c-13.1,0-23.8,10.6-23.8,23.7v80.1c0,13.1,10.7,23.7,23.8,23.7h161.1
				c13.1,0,23.8-10.6,23.8-23.7v-80.1c0-13.1-10.7-23.7-23.8-23.7H217.8z"/>
		</g>
		<g>
			<path class="st1" d="M397.1,385.3c0-9.8-8-17.8-17.9-17.9v0H217.6c-9.9,0-18,8.1-18,17.9v74.8h197.5V385.3z"/>
			<path class="st2" d="M397.1,465.5v-5.3H199.6v5.2c0,9.9,8.1,18,18,18h161.7v0C389.1,483.3,397.1,475.3,397.1,465.5z"/>
			<path class="st3" d="M397.1,465.5v-5.3H199.6v5.2c0,9.9,8.1,18,18,18h161.7v0C389.1,483.3,397.1,475.3,397.1,465.5z"/>
		</g>
	</g>
	<g>
		<path class="st0" d="M253.8,478.6l-3-6h-2.7v6H246v-14.3h5.5c2.7,0,4.4,1.7,4.4,4.2c0,2-1.2,3.3-2.9,3.8l3.3,6.3H253.8z
			 M251.3,466.3h-3.2v4.5h3.2c1.4,0,2.4-0.8,2.4-2.2C253.8,467.1,252.8,466.3,251.3,466.3z"/>
		<path class="st0" d="M258.6,478.6v-14.3h9.1v1.9h-7v4.2h5.9v1.9h-5.9v4.3h7v2H258.6z"/>
		<path class="st0" d="M274,478.8c-2.1,0-3.7-0.5-5.1-1.9l1.4-1.4c1,1,2.2,1.4,3.7,1.4c1.9,0,2.9-0.8,2.9-2.2c0-0.6-0.2-1.1-0.6-1.5
			c-0.4-0.3-0.7-0.5-1.6-0.6l-1.7-0.2c-1.2-0.2-2.1-0.6-2.7-1.1c-0.7-0.7-1-1.6-1-2.7c0-2.5,1.8-4.2,4.8-4.2c1.9,0,3.2,0.5,4.4,1.6
			l-1.4,1.4c-0.9-0.8-1.9-1.1-3.1-1.1c-1.7,0-2.6,1-2.6,2.2c0,0.5,0.2,1,0.5,1.3c0.4,0.3,0.9,0.6,1.6,0.7l1.6,0.2
			c1.3,0.2,2.1,0.5,2.7,1.1c0.8,0.7,1.2,1.7,1.2,2.9C279.1,477.2,277,478.8,274,478.8z"/>
		<path class="st0" d="M286.4,466.3v12.3h-2.2v-12.3h-3.9v-1.9h10v1.9H286.4z"/>
		<path class="st0" d="M300.2,478.6l-3-6h-2.7v6h-2.2v-14.3h5.5c2.7,0,4.4,1.7,4.4,4.2c0,2-1.2,3.3-2.9,3.8l3.3,6.3H300.2z
			 M297.7,466.3h-3.2v4.5h3.2c1.4,0,2.4-0.8,2.4-2.2C300.1,467.1,299.1,466.3,297.7,466.3z"/>
		<path class="st0" d="M304.9,478.6v-14.3h2.2v14.3H304.9z"/>
		<path class="st0" d="M314.9,478.8c-1.5,0-2.8-0.5-3.8-1.5c-1.4-1.4-1.4-3-1.4-5.7c0-2.7,0-4.3,1.4-5.7c1-1,2.3-1.5,3.8-1.5
			c2.6,0,4.6,1.5,5.1,4.4h-2.2c-0.3-1.4-1.3-2.4-2.9-2.4c-0.8,0-1.6,0.3-2.1,0.9c-0.7,0.8-0.9,1.6-0.9,4.5c0,2.9,0.2,3.7,0.9,4.5
			c0.5,0.5,1.3,0.9,2.1,0.9c1.6,0,2.6-1,2.9-2.4h2.2C319.5,477.2,317.5,478.8,314.9,478.8z"/>
		<path class="st0" d="M326.8,466.3v12.3h-2.2v-12.3h-3.9v-1.9h10v1.9H326.8z"/>
		<path class="st0" d="M332.7,478.6v-14.3h9.1v1.9h-7v4.2h5.9v1.9h-5.9v4.3h7v2H332.7z"/>
		<path class="st0" d="M353.1,477.3c-0.9,0.9-2.2,1.3-3.7,1.3h-5v-14.3h5c1.5,0,2.8,0.4,3.7,1.3c1.5,1.5,1.4,3.6,1.4,5.7
			C354.5,473.5,354.6,475.8,353.1,477.3z M351.6,467.3c-0.6-0.7-1.4-1-2.4-1h-2.6v10.4h2.6c1,0,1.8-0.3,2.4-1
			c0.7-0.8,0.8-2.4,0.8-4.3C352.3,469.4,352.3,468.1,351.6,467.3z"/>
	</g>
	<g>
		<path class="st0" d="M315.6,434.3v-36.5l-7.7,6.8v-4.7l7.7-6.6h4.2v41.1H315.6z"/>
		<path class="st0" d="M337.9,434.7c-6.8,0-12.1-4.7-12.1-11.7c0-4.8,2.7-8,6.2-10c-3.2-1.8-5.4-4.9-5.4-9.1c0-6.4,4.8-11,11.3-11
			c6.5,0,11.3,4.6,11.3,11c0,4.3-2.1,7.3-5.3,9.1c3.5,2,6.1,5.2,6.1,10C350,429.9,344.7,434.7,337.9,434.7z M337.9,414.9
			c-4.5,0-8,3.5-8,8c0,4.6,3.5,8,8,8c4.5,0,8-3.5,8-8C345.8,418.4,342.4,414.9,337.9,414.9z M337.9,396.5c-4.2,0-7.2,3.1-7.2,7.4
			c0,4.3,3,7.3,7.2,7.3c4.2,0,7.2-3,7.2-7.3C345,399.7,342.1,396.5,337.9,396.5z"/>
		<path class="st0" d="M370,420.8V431h-3.9v-10.2H356v-3.9h10.2v-10.1h3.9v10.1h10.1v3.9H370z"/>
	</g>
	<g>
		<path class="st0" d="M266.7,436l-8.4-17.1h-6V436h-8.4v-42.8h16.8c8.7,0,13.9,5.9,13.9,13.1c0,6-3.7,9.7-7.8,11.2l9.6,18.5H266.7z
			 M260.2,400.6h-7.9v11.3h7.9c3.7,0,6.1-2.3,6.1-5.6C266.2,403,263.8,400.6,260.2,400.6z"/>
		<g>
			<path class="st0" d="M258.4,370.9L215,414.2l44.3,44.3l44.3-44.3l-44.3-44.3L258.4,370.9z M259.4,373.8
				c1.8,1.8,38.6,38.6,40.4,40.4c-1.8,1.8-38.6,38.6-40.4,40.4c-1.8-1.8-38.6-38.6-40.4-40.4C220.8,412.4,257.5,375.7,259.4,373.8z"
				/>
		</g>
	</g>
	<polygon class="st0" points="200.1,461.2 200.1,459.6 396.6,459.6 396.6,461.2 200.1,461.2 	"/>
</g>
</svg>
