<?xml version="1.0" encoding="utf-8"?>
<!-- Generator: Adobe Illustrator 19.2.1, SVG Export Plug-In . SVG Version: 6.00 Build 0)  -->
<svg version="1.1" id="Layer_1" xmlns="http://www.w3.org/2000/svg" xmlns:xlink="http://www.w3.org/1999/xlink" x="0px" y="0px"
	 viewBox="0 0 208.7 127.5" style="enable-background:new 0 0 208.7 127.5;" xml:space="preserve">
<style type="text/css">
	.st0{fill:#FFFFFF;}
	.st1{fill:#231F20;stroke:#231F20;stroke-width:0.4;}
	.st2{fill:#EC2127;stroke:#231F20;stroke-width:0.4;}
	.st3{fill:#231F20;}
</style>
<g>
	<g>
		<g>
			<path class="st0" d="M23.8,0C10.7,0,0,10.6,0,23.7v80.1c0,13.1,10.7,23.7,23.8,23.7h161.1c13.1,0,23.8-10.6,23.8-23.7V23.7
				C208.7,10.6,198,0,184.9,0H23.8z"/>
		</g>
		<g>
			<path class="st1" d="M203.1,23.7c0-9.8-8-17.8-17.9-17.9l0,0H23.6c-9.9,0-18,8.1-18,17.9v74.8h197.5V23.7z"/>
			<path class="st2" d="M203.1,103.9v-5.3H5.6v5.2c0,9.9,8.1,18,18,18h161.7l0,0C195.1,121.7,203.1,113.7,203.1,103.9z"/>
			<path class="st3" d="M203.1,103.9v-5.3H5.6v5.2c0,9.9,8.1,18,18,18h161.7l0,0C195.1,121.7,203.1,113.7,203.1,103.9z"/>
		</g>
	</g>
	<g>
		<path class="st0" d="M59.8,117l-3-6h-2.7v6H52v-14.3h5.5c2.7,0,4.4,1.7,4.4,4.2c0,2-1.2,3.3-2.9,3.8l3.3,6.3H59.8z M57.3,104.7
			h-3.2v4.5h3.2c1.4,0,2.4-0.8,2.4-2.2C59.8,105.5,58.8,104.7,57.3,104.7z"/>
		<path class="st0" d="M64.6,117v-14.3h9.1v1.9h-7v4.2h5.9v1.9h-5.9v4.3h7v2H64.6z"/>
		<path class="st0" d="M80,117.2c-2.1,0-3.7-0.5-5.1-1.9l1.4-1.4c1,1,2.2,1.4,3.7,1.4c1.9,0,2.9-0.8,2.9-2.2c0-0.6-0.2-1.1-0.6-1.5
			c-0.4-0.3-0.7-0.5-1.6-0.6l-1.7-0.2c-1.2-0.2-2.1-0.6-2.7-1.1c-0.7-0.7-1-1.6-1-2.7c0-2.5,1.8-4.2,4.8-4.2c1.9,0,3.2,0.5,4.4,1.6
			l-1.4,1.4c-0.9-0.8-1.9-1.1-3.1-1.1c-1.7,0-2.6,1-2.6,2.2c0,0.5,0.2,1,0.5,1.3c0.4,0.3,0.9,0.6,1.6,0.7l1.6,0.2
			c1.3,0.2,2.1,0.5,2.7,1.1c0.8,0.7,1.2,1.7,1.2,2.9C85.1,115.6,83,117.2,80,117.2z"/>
		<path class="st0" d="M92.4,104.7V117h-2.2v-12.3h-3.9v-1.9h10v1.9H92.4z"/>
		<path class="st0" d="M106.2,117l-3-6h-2.7v6h-2.2v-14.3h5.5c2.7,0,4.4,1.7,4.4,4.2c0,2-1.2,3.3-2.9,3.8l3.3,6.3H106.2z
			 M103.7,104.7h-3.2v4.5h3.2c1.4,0,2.4-0.8,2.4-2.2C106.1,105.5,105.1,104.7,103.7,104.7z"/>
		<path class="st0" d="M110.9,117v-14.3h2.2V117H110.9z"/>
		<path class="st0" d="M120.9,117.2c-1.5,0-2.8-0.5-3.8-1.5c-1.4-1.4-1.4-3-1.4-5.7s0-4.3,1.4-5.7c1-1,2.3-1.5,3.8-1.5
			c2.6,0,4.6,1.5,5.1,4.4h-2.2c-0.3-1.4-1.3-2.4-2.9-2.4c-0.8,0-1.6,0.3-2.1,0.9c-0.7,0.8-0.9,1.6-0.9,4.5s0.2,3.7,0.9,4.5
			c0.5,0.5,1.3,0.9,2.1,0.9c1.6,0,2.6-1,2.9-2.4h2.2C125.5,115.6,123.5,117.2,120.9,117.2z"/>
		<path class="st0" d="M132.8,104.7V117h-2.2v-12.3h-3.9v-1.9h10v1.9H132.8z"/>
		<path class="st0" d="M138.7,117v-14.3h9.1v1.9h-7v4.2h5.9v1.9h-5.9v4.3h7v2H138.7z"/>
		<path class="st0" d="M159.1,115.7c-0.9,0.9-2.2,1.3-3.7,1.3h-5v-14.3h5c1.5,0,2.8,0.4,3.7,1.3c1.5,1.5,1.4,3.6,1.4,5.7
			C160.5,111.9,160.6,114.2,159.1,115.7z M157.6,105.7c-0.6-0.7-1.4-1-2.4-1h-2.6v10.4h2.6c1,0,1.8-0.3,2.4-1
			c0.7-0.8,0.8-2.4,0.8-4.3C158.3,107.8,158.3,106.5,157.6,105.7z"/>
	</g>
	<g>
		<path class="st0" d="M121.6,72.7V36.2l-7.7,6.8v-4.7l7.7-6.6h4.2v41.1L121.6,72.7L121.6,72.7z"/>
		<path class="st0" d="M143.9,73.1c-6.8,0-12.1-4.7-12.1-11.7c0-4.8,2.7-8,6.2-10c-3.2-1.8-5.4-4.9-5.4-9.1c0-6.4,4.8-11,11.3-11
			s11.3,4.6,11.3,11c0,4.3-2.1,7.3-5.3,9.1c3.5,2,6.1,5.2,6.1,10C156,68.3,150.7,73.1,143.9,73.1z M143.9,53.3c-4.5,0-8,3.5-8,8
			c0,4.6,3.5,8,8,8s8-3.5,8-8C151.8,56.8,148.4,53.3,143.9,53.3z M143.9,34.9c-4.2,0-7.2,3.1-7.2,7.4s3,7.3,7.2,7.3s7.2-3,7.2-7.3
			C151,38.1,148.1,34.9,143.9,34.9z"/>
		<path class="st0" d="M176,59.2v10.2h-3.9V59.2H162v-3.9h10.2V45.2h3.9v10.1h10.1v3.9H176z"/>
	</g>
	<g>
		<path class="st0" d="M72.7,74.4l-8.4-17.1h-6v17.1h-8.4V31.6h16.8c8.7,0,13.9,5.9,13.9,13.1c0,6-3.7,9.7-7.8,11.2l9.6,18.5
			L72.7,74.4L72.7,74.4z M66.2,39h-7.9v11.3h7.9c3.7,0,6.1-2.3,6.1-5.6C72.2,41.4,69.8,39,66.2,39z"/>
		<g>
			<path class="st0" d="M64.4,9.3L21,52.6l44.3,44.3l44.3-44.3L65.3,8.3L64.4,9.3z M65.4,12.2c1.8,1.8,38.6,38.6,40.4,40.4
				C104,54.4,67.2,91.2,65.4,93C63.6,91.2,26.8,54.4,25,52.6C26.8,50.8,63.5,14.1,65.4,12.2z"/>
		</g>
	</g>
	<polygon class="st0" points="6.1,99.6 6.1,98 202.6,98 202.6,99.6 	"/>
</g>
</svg>
