<?xml version="1.0" encoding="utf-8"?>
<!-- Generator: Adobe Illustrator 19.2.1, SVG Export Plug-In . SVG Version: 6.00 Build 0)  -->
<svg version="1.1" id="Layer_1" xmlns="http://www.w3.org/2000/svg" xmlns:xlink="http://www.w3.org/1999/xlink" x="0px" y="0px"
	 viewBox="0 0 134.4 128.5" style="enable-background:new 0 0 134.4 128.5;" xml:space="preserve">
<style type="text/css">
	.st0{fill:#FFFFFF;}
	.st1{fill:#F69322;}
	.st2{fill:#231F20;}
</style>
<g>
	<g>
		<g>
			<path class="st0" d="M23.9,0C10.7,0,0,10.7,0,23.9v80.7c0,13.2,10.7,23.9,23.9,23.9h86.6c13.2,0,23.9-10.7,23.9-23.9V23.9
				c0-13.2-10.7-23.9-23.9-23.9L23.9,0L23.9,0z"/>
			<g>
				<path class="st1" d="M6.4,104.6V23.9c0-9.5,7.8-17.3,17.4-17.3h87c9.6,0,17.3,7.7,17.3,17.3v80.7c0,9.5-7.8,17.3-17.3,17.3h-87
					C14.2,121.9,6.4,114.1,6.4,104.6z"/>
			</g>
		</g>
	</g>
	<g>
		<path class="st2" d="M82.4,57h-10v26.1h-8.8V57H53.5v-7.5h28.9V57z"/>
		<path class="st2" d="M107.7,61.5c-0.5-3.4-3.1-5.2-6.8-5.2c-5.7,0-7.8,5-7.8,10s2.2,10,7.8,10c4.1,0,6.5-2.4,6.8-6.2h8.8
			c-0.5,8.7-6.8,13.8-15.4,13.8c-10.2,0-16.8-7.8-16.8-17.6c0-9.8,6.6-17.5,16.8-17.5c7.3,0,15.1,4.6,15.4,12.7L107.7,61.5
			L107.7,61.5z"/>
		<path class="st2" d="M42.6,61.5c-0.5-3.4-3.1-5.2-6.8-5.2c-5.7,0-7.8,5-7.8,10s2.2,10,7.8,10c4.1,0,6.5-2.4,6.8-6.2h8.8
			c-0.5,8.7-6.8,13.8-15.4,13.8c-10.2,0-16.8-7.8-16.8-17.6c0-9.8,6.6-17.5,16.8-17.5c7.3,0,15.1,4.6,15.4,12.7L42.6,61.5L42.6,61.5
			z"/>
	</g>
</g>
</svg>
