<?xml version="1.0" encoding="utf-8"?>
<!-- Generator: Adobe Illustrator 19.2.1, SVG Export Plug-In . SVG Version: 6.00 Build 0)  -->
<svg version="1.1" id="Layer_1" xmlns="http://www.w3.org/2000/svg" xmlns:xlink="http://www.w3.org/1999/xlink" x="0px" y="0px"
	 viewBox="0 0 595.3 841.9" style="enable-background:new 0 0 595.3 841.9;" xml:space="preserve">
<style type="text/css">
	.st0{fill:#FFFFFF;}
	.st1{fill:#F69322;}
	.st2{fill:#231F20;}
</style>
<g>
	<g>
		<g>
			<path class="st0" d="M260.5,326c-13.2,0-23.9,10.7-23.9,23.9v80.7c0,13.2,10.7,23.9,23.9,23.9h86.6c13.2,0,23.9-10.7,23.9-23.9
				v-80.7c0-13.2-10.7-23.9-23.9-23.9H260.5z"/>
			<g>
				<path class="st1" d="M243,430.6v-80.7c0-9.5,7.8-17.3,17.4-17.3c0,0,87,0,87,0c9.6,0,17.3,7.7,17.3,17.3v80.7
					c0,9.5-7.8,17.3-17.3,17.3l-87,0C250.8,447.9,243,440.1,243,430.6z"/>
			</g>
		</g>
	</g>
	<g>
		<path class="st2" d="M319,383h-10v26.1h-8.8V383h-10.1v-7.5H319V383z"/>
		<path class="st2" d="M344.3,387.5c-0.5-3.4-3.1-5.2-6.8-5.2c-5.7,0-7.8,5-7.8,10c0,5,2.2,10,7.8,10c4.1,0,6.5-2.4,6.8-6.2h8.8
			c-0.5,8.7-6.8,13.8-15.4,13.8c-10.2,0-16.8-7.8-16.8-17.6c0-9.8,6.6-17.5,16.8-17.5c7.3,0,15.1,4.6,15.4,12.7H344.3z"/>
		<path class="st2" d="M279.2,387.5c-0.5-3.4-3.1-5.2-6.8-5.2c-5.7,0-7.8,5-7.8,10c0,5,2.2,10,7.8,10c4.1,0,6.5-2.4,6.8-6.2h8.8
			c-0.5,8.7-6.8,13.8-15.4,13.8c-10.2,0-16.8-7.8-16.8-17.6c0-9.8,6.6-17.5,16.8-17.5c7.3,0,15.1,4.6,15.4,12.7H279.2z"/>
	</g>
</g>
</svg>
